<?xml version="1.0" encoding="UTF-8" standalone="no"?>
<svg
   xmlns:dc="http://purl.org/dc/elements/1.1/"
   xmlns:cc="http://creativecommons.org/ns#"
   xmlns:rdf="http://www.w3.org/1999/02/22-rdf-syntax-ns#"
   xmlns:svg="http://www.w3.org/2000/svg"
   xmlns="http://www.w3.org/2000/svg"
   xmlns:sodipodi="http://sodipodi.sourceforge.net/DTD/sodipodi-0.dtd"
   xmlns:inkscape="http://www.inkscape.org/namespaces/inkscape"
   width="209.88806mm"
   height="184.08568mm"
   viewBox="0 0 209.88806 184.08568"
   version="1.1"
   id="svg8"
   inkscape:version="1.0.2-2 (e86c870879, 2021-01-15)"
   sodipodi:docname="tictactoeSVG.svg">
  <defs
     id="defs2" />
  <sodipodi:namedview
     id="base"
     pagecolor="#ffffff"
     bordercolor="#666666"
     borderopacity="1.0"
     inkscape:pageopacity="0.0"
     inkscape:pageshadow="2"
     inkscape:zoom="0.67788671"
     inkscape:cx="433.59967"
     inkscape:cy="531.653"
     inkscape:document-units="mm"
     inkscape:current-layer="layer1"
     inkscape:document-rotation="0"
     showgrid="false"
     fit-margin-top="0"
     fit-margin-left="0"
     fit-margin-right="0"
     fit-margin-bottom="0"
     inkscape:window-width="1920"
     inkscape:window-height="1051"
     inkscape:window-x="-9"
     inkscape:window-y="-9"
     inkscape:window-maximized="1" />
  <metadata
     id="metadata5">
    <rdf:RDF>
      <cc:Work
         rdf:about="">
        <dc:format>image/svg+xml</dc:format>
        <dc:type
           rdf:resource="http://purl.org/dc/dcmitype/StillImage" />
        <dc:title></dc:title>
      </cc:Work>
    </rdf:RDF>
  </metadata>
  <g
     inkscape:label="Layer 1"
     inkscape:groupmode="layer"
     id="layer1"
     transform="translate(-0.34912724,-0.2566528)">
    <path
       style="fill:#000000;fill-opacity:1;stroke:none;stroke-width:1.38406;stroke-linecap:round;stroke-linejoin:bevel"
       id="path850-4"
       d="M 152.29557,4.3536128 C 141.32136,54.153493 127.67672,103.40605 115.11761,152.87835 112.57737,163.29717 109.98546,173.73191 108.59727,184.34233 108.59727,184.34233 118.23852,179.9442 118.23852,179.9442 V 179.9442 C 118.9258,169.69831 120.86222,159.56943 122.80683,149.47226 132.96128,99.835563 144.75894,50.457743 158.61064,1.5743028 158.61064,1.5743028 152.29557,4.3536128 152.29557,4.3536128 Z" />
    <path
       style="fill:#000000;fill-opacity:1;stroke:none;stroke-width:1.38406;stroke-linecap:round;stroke-linejoin:bevel"
       id="path850"
       d="M 92.326452,3.0359628 C 81.352223,52.835843 67.70759,102.0884 55.148475,151.56072 52.608237,161.97952 50.016329,172.41427 48.628139,183.02468 48.628139,183.02468 58.269398,178.62657 58.269398,178.62657 V 178.62657 C 58.956665,168.38066 60.893087,158.25178 62.837701,148.15461 72.992145,98.517913 84.789803,49.140103 98.641521,0.2566528 98.641521,0.2566528 92.326452,3.0359628 92.326452,3.0359628 Z" />
    <path
       style="fill:#000000;fill-opacity:1;stroke:none;stroke-width:1.38406;stroke-linecap:round;stroke-linejoin:bevel"
       id="path872"
       d="M 14.794598,65.327083 C 16.005631,65.372953 17.217143,65.409333 18.427709,65.464723 24.963195,65.763803 31.492519,66.170423 38.028403,66.462203 48.329257,66.922083 66.616822,67.581183 76.363595,67.809193 84.262294,67.993963 92.163683,68.065503 100.06373,68.193653 123.31333,68.350493 146.56018,67.934333 169.80251,67.466343 179.57521,67.269533 189.82132,66.997133 199.64022,66.883563 202.59003,66.849443 205.54025,66.859783 208.49027,66.847873 L 210.23719,57.295483 206.65421,59.540603 C 206.65421,59.540603 201.99149,60.913263 188.51918,61.390313 148.32447,63.480143 112.25628,63.160763 79.863919,62.885693 60.23751,62.141373 40.869928,60.301423 21.381435,58.026373 Z"
       sodipodi:nodetypes="cssscssccscccc" />
    <path
       style="fill:#000000;fill-opacity:1;stroke:none;stroke-width:1.38406;stroke-linecap:round;stroke-linejoin:bevel"
       id="path872-1"
       d="M 0.34912724,120.18062 C 1.5601613,120.22651 2.7716726,120.26287 3.9822392,120.31826 10.517724,120.61734 17.047048,121.02396 23.582932,121.31574 33.883786,121.77562 52.171366,122.43472 61.918135,122.66273 69.816835,122.8475 77.718215,122.91904 85.618253,123.04719 108.86787,123.20403 132.11471,122.78788 155.35703,122.31988 165.12974,122.12307 175.37585,121.85067 185.19474,121.7371 188.14455,121.70298 191.09479,121.71332 194.0448,121.70141 L 195.79171,112.14903 192.20873,114.39414 C 192.20873,114.39414 187.54601,115.7668 174.0737,116.24386 133.87899,118.33369 97.810827,118.0143 65.418443,117.73925 45.792048,116.99492 26.424458,115.15496 6.9359656,112.87991 Z"
       sodipodi:nodetypes="cssscssccscccc" />
    <path
       style="fill:#000000;fill-opacity:1;stroke:none;stroke-width:1.38406;stroke-linecap:round;stroke-linejoin:bevel"
       id="path906"
       d="M 46.600226,19.135103 C 50.009813,25.254173 54.300503,30.958473 59.208011,36.151153 60.593438,37.617083 62.081618,38.998853 63.518417,40.422723 69.138368,45.172003 66.36973,42.956343 71.79543,47.099903 71.79543,47.099903 75.834511,44.779343 75.834511,44.779343 V 44.779343 C 70.26483,40.774323 73.085779,42.934893 67.407436,38.258713 65.972689,36.845443 64.474522,35.484043 63.103188,34.018953 58.264178,28.849083 54.07867,23.035823 51.428224,16.651843 51.428224,16.651843 46.600226,19.135103 46.600226,19.135103 Z" />
    <path
       style="fill:#000000;fill-opacity:1;stroke:none;stroke-width:1.38406;stroke-linecap:round;stroke-linejoin:bevel"
       id="path918"
       d="M 37.632692,49.087483 C 39.550651,48.037313 41.498857,47.032123 43.386559,45.936923 43.790291,45.702683 47.074241,43.290813 47.085015,43.282983 50.176439,41.034113 53.247604,38.765423 56.305121,36.477953 62.459221,31.817033 68.424132,26.955753 74.213614,21.919743 75.546786,20.614153 77.055572,19.458713 78.351117,18.119393 78.910736,17.540873 79.385431,16.897493 79.940239,16.314253 80.222534,16.034543 80.400801,15.692533 80.607383,15.366783 80.607383,15.366783 75.492112,17.444573 75.492112,17.444573 V 17.444573 C 75.29153,17.744463 75.082753,18.038523 74.831006,18.305673 74.34307,18.881983 73.882025,19.480713 73.356198,20.029303 72.12833,21.310273 70.751983,22.466353 69.476906,23.705923 63.793111,28.747703 57.867785,33.551893 51.754991,38.154253 48.624118,40.478443 45.481625,42.783883 42.290744,45.038793 41.526503,45.578873 40.764528,46.121753 39.991832,46.651613 39.443184,47.027873 37.690617,47.989953 38.327053,47.756923 39.619313,47.283803 40.768372,46.532573 41.989033,45.920373 41.989033,45.920373 37.632692,49.087483 37.632692,49.087483 Z" />
    <path
       style="fill:#000000;fill-opacity:1;stroke:none;stroke-width:1.38406;stroke-linecap:round;stroke-linejoin:bevel"
       id="path920"
       d="M 89.922344,82.544193 C 92.793572,86.647773 96.46698,90.180173 100.14212,93.676033 103.90988,97.154883 107.89252,100.42502 111.84299,103.72574 112.99072,104.724 114.1263,105.73487 115.18029,106.81628 115.29499,106.93049 115.40971,107.0447 115.52441,107.15892 115.52441,107.15892 120.28234,104.50866 120.28234,104.50866 V 104.50866 C 120.16639,104.39707 120.05044,104.28549 119.93449,104.1739 118.82574,103.0971 117.66446,102.0673 116.42871,101.11018 112.27603,97.992633 108.16052,94.827023 104.42168,91.286893 100.83958,87.818843 97.198295,84.286523 94.762076,80.020533 94.762076,80.020533 89.922344,82.544193 89.922344,82.544193 Z" />
    <path
       style="fill:#000000;fill-opacity:1;stroke:none;stroke-width:1.38406;stroke-linecap:round;stroke-linejoin:bevel"
       id="path922"
       d="M 79.916783,107.79758 C 85.739316,105.39966 91.545932,102.97653 97.251555,100.35253 101.62828,98.089843 104.20282,96.829003 108.81135,93.945413 110.5342,92.867403 113.02922,90.690773 114.45287,89.256583 116.27257,87.423383 116.73554,86.669203 118.2228,84.684133 119.90053,82.069263 119.15777,83.366943 120.47721,80.803733 120.47721,80.803733 115.67844,82.804483 115.67844,82.804483 V 82.804483 C 114.40279,85.286413 115.11971,84.027763 113.5025,86.568333 112.96024,87.290133 112.45481,88.036323 111.87572,88.733693 110.4681,90.428833 109.01222,91.892573 107.27492,93.317673 106.3007,94.116823 105.14675,94.730733 104.23481,95.589343 104.07752,95.737423 105.09646,95.428533 104.90976,95.544463 103.68653,96.304203 102.34384,96.888573 101.06088,97.560613 99.741034,98.169623 98.431616,98.797923 97.101357,99.387623 92.885278,101.25653 88.560297,102.91158 84.278436,104.64728 84.278436,104.64728 79.916783,107.79758 79.916783,107.79758 Z" />
    <path
       style="fill:#000000;fill-opacity:1;stroke:none;stroke-width:1.38406;stroke-linecap:round;stroke-linejoin:bevel"
       id="path924"
       d="M 139.47214,142.52756 C 140.86801,146.36308 143.16482,149.88589 145.81475,153.10175 146.59439,154.04788 147.44214,154.94526 148.25584,155.86703 151.61254,159.55456 155.60102,162.65559 159.836,165.45407 159.836,165.45407 164.2627,162.86859 164.2627,162.86859 V 162.86859 C 159.92597,160.2272 155.89887,157.18835 152.53164,153.52453 151.72837,152.61003 150.88582,151.72334 150.12181,150.78101 147.55491,147.61502 145.30324,144.05143 144.42093,140.15479 144.42093,140.15479 139.47214,142.52756 139.47214,142.52756 Z" />
    <path
       style="fill:#000000;fill-opacity:1;stroke:none;stroke-width:1.38406;stroke-linecap:round;stroke-linejoin:bevel"
       id="path926"
       d="M 136.94591,165.82169 C 139.42576,163.79343 142.21532,162.11575 144.85447,160.27293 147.50618,158.42131 148.80683,157.40211 151.39201,155.45189 154.91063,152.60515 158.55474,149.75813 161.28023,146.21562 162.44913,144.69631 162.77094,143.94069 163.63987,142.31438 164.56499,140.16223 164.14034,141.19034 164.92231,139.233 164.92231,139.233 160.04781,141.31938 160.04781,141.31938 V 141.31938 C 159.33746,143.22122 159.73278,142.22489 158.84743,144.30358 157.97101,145.92745 157.71501,146.55283 156.53903,148.07382 153.85634,151.54355 150.30447,154.3544 146.83506,157.13266 144.00647,159.24958 143.11737,159.9608 140.20356,161.96042 137.39985,163.88447 134.41797,165.61889 131.82838,167.7919 131.82838,167.7919 136.94591,165.82169 136.94591,165.82169 Z" />
    <path
       style="fill:#000000;fill-opacity:1;stroke:none;stroke-width:1.38406;stroke-linecap:round;stroke-linejoin:bevel"
       id="path928"
       d="M 128.65183,20.953493 C 125.04804,20.509283 121.36322,20.800503 117.85831,21.678643 116.84164,21.933383 115.85798,22.287963 114.85782,22.592603 110.03182,24.753863 104.46397,27.002083 102.29865,31.837263 101.43033,33.776243 101.65591,34.284053 101.68308,36.309753 101.94446,37.027713 102.10397,37.783873 102.46723,38.463683 103.68586,40.744223 105.92937,42.199373 108.47561,43.066853 111.03697,43.939473 112.23492,43.902913 114.9559,44.183573 117.90446,44.037023 118.8754,44.172883 121.69,43.315573 124.83363,42.357993 129.46419,39.526243 131.51366,38.162733 133.0198,37.160733 134.11854,35.431513 135.13477,34.060953 136.66613,31.363713 137.6586,28.379553 137.17268,25.310543 136.94604,23.879083 136.6407,23.496593 136.0075,22.251743 135.35325,21.467893 135.10406,21.026983 134.21409,20.475993 133.88779,20.273953 133.5104,20.151723 133.15855,19.989613 133.15855,19.989613 128.60667,22.752763 128.60667,22.752763 V 22.752763 C 128.93597,22.876493 129.28754,22.959053 129.59459,23.123893 130.44733,23.581723 130.696,23.988613 131.32715,24.684053 131.96066,25.845493 132.25271,26.171783 132.4754,27.530073 132.96198,30.498123 131.9303,33.378323 130.39265,35.951433 129.86317,36.634823 129.39579,37.362343 128.80421,38.001593 128.17725,38.679093 126.86862,39.006513 126.74977,39.887873 126.66683,40.502923 129.2099,38.876663 128.64096,39.212163 125.78276,40.897553 122.41649,41.421993 119.08706,41.496523 117.98033,41.391823 116.8621,41.361833 115.76686,41.182443 112.32147,40.618083 108.66997,39.202093 107.05734,36.151953 106.72063,35.515093 106.58774,34.803693 106.35294,34.129583 106.37179,32.188163 106.16445,31.742053 107.0545,29.899403 107.39797,29.188333 107.85463,28.521143 108.36108,27.897123 108.90039,27.232573 110.36791,26.861243 110.17692,26.051943 110.02032,25.388293 107.56672,27.244433 108.09455,26.767633 108.82544,26.107353 109.91582,25.899323 110.82647,25.465183 111.811,25.149273 112.77737,24.781123 113.78006,24.517453 117.11578,23.640313 120.64732,23.326243 124.07612,23.873433 124.07612,23.873433 128.65183,20.953493 128.65183,20.953493 Z" />
    <path
       style="fill:#000000;fill-opacity:1;stroke:none;stroke-width:1.38406;stroke-linecap:round;stroke-linejoin:bevel"
       id="path930"
       d="M 56.890711,80.665363 C 56.588442,80.512253 56.304384,80.324073 55.9839,80.206043 52.152439,78.794923 47.360801,78.709023 43.355029,79.322693 41.759637,79.567083 40.212145,80.025093 38.640712,80.376313 33.44905,82.345223 31.557972,82.802873 26.374482,86.525953 24.576826,87.817133 23.188303,90.274473 23.444498,92.428273 23.797965,95.399773 25.70864,96.176683 27.958319,98.008703 29.459624,98.711573 30.894625,99.548663 32.462234,100.11729 35.510038,101.22288 39.341054,102.02315 42.648838,101.97865 44.151032,101.95845 45.725142,101.91565 47.107872,101.37762 49.779711,100.33801 52.356562,99.002423 54.608828,97.325093 55.55841,96.617893 55.838593,95.386753 56.453482,94.417603 57.0164,91.007223 57.372099,91.074603 56.467831,87.661123 56.19673,86.637743 55.706453,85.673803 55.325759,84.680123 55.325759,84.680123 50.894683,86.925623 50.894683,86.925623 V 86.925623 C 51.272641,87.885223 51.76873,88.812473 52.028556,89.804443 52.878577,93.049703 52.498679,93.072943 51.852545,96.281253 51.221637,97.181113 50.319154,97.963323 49.959822,98.980803 49.848676,99.295533 51.356084,98.650753 50.998741,98.698903 49.502884,98.900453 48.046701,99.384693 46.536034,99.442133 43.235786,99.567583 39.508186,98.826963 36.467171,97.711863 34.957094,97.158143 33.58861,96.323733 32.149328,95.629673 30.116015,93.920873 28.290691,93.124993 28.017495,90.390463 27.707237,87.284983 29.333205,87.330903 30.919681,84.892953 31.006248,84.759923 30.273835,84.864323 30.424161,84.793383 31.840656,84.125073 33.349451,83.635463 34.812098,83.056513 36.345921,82.701603 37.854357,82.236943 39.413571,81.991853 43.315973,81.378353 47.696186,81.497343 51.381242,82.950153 51.643441,83.053523 51.87643,83.210373 52.124026,83.340473 52.124026,83.340473 56.890711,80.665363 56.890711,80.665363 Z" />
    <path
       style="fill:#000000;fill-opacity:1;stroke:none;stroke-width:1.38406;stroke-linecap:round;stroke-linejoin:bevel"
       id="path932"
       d="M 96.50374,144.23547 C 91.992533,143.64702 87.269922,144.08818 83.060029,145.74979 81.976224,146.17754 80.981731,146.77447 79.942582,147.28684 77.694746,148.73179 75.231749,149.93047 73.199066,151.62171 71.898869,152.70352 71.393615,155.07811 71.863759,156.5698 72.144302,157.45988 72.69951,158.30027 73.405697,158.96362 75.616969,161.0407 77.885857,161.4018 80.783542,162.35111 82.372044,162.2136 84.101347,162.55291 85.549062,161.93854 90.427772,159.86819 93.742181,158.10825 94.473074,153.41388 94.898748,150.6798 93.929907,148.04456 92.657681,145.6447 92.092285,144.57819 91.297147,143.62734 90.616874,142.61867 90.616874,142.61867 86.307552,144.91818 86.307552,144.91818 V 144.91818 C 86.992734,145.88905 87.800939,146.79574 88.363087,147.83077 89.607604,150.1221 90.516837,152.68905 90.021178,155.30509 89.781221,156.57157 88.613483,157.59959 88.424282,158.87329 88.374617,159.20757 89.781481,159.20023 89.428309,159.2961 87.947133,159.69813 86.364817,159.66404 84.833083,159.84801 82.060689,158.9251 79.958551,158.60036 77.866058,156.60304 77.22992,155.99585 76.728707,155.22763 76.492196,154.41451 75.893438,152.35608 76.885277,151.54072 77.908061,149.86138 77.749433,149.29361 76.650031,150.07707 76.021022,150.18492 77.045182,149.64894 78.020495,149.02573 79.093502,148.577 83.081216,146.90943 87.62943,146.40005 91.926999,147.12655 91.926999,147.12655 96.50374,144.23547 96.50374,144.23547 Z" />
  </g>
</svg>
